<mxfile host="app.diagrams.net" modified="2024-05-24T13:52:13.587Z" agent="Mozilla/5.0 (Windows NT 10.0; Win64; x64) AppleWebKit/537.36 (KHTML, like Gecko) Chrome/125.0.0.0 Safari/537.36" etag="nOH1a1Knm1FeiEAjR6pc" version="24.4.6" type="device">
  <diagram id="COl8ueRZecncPOgyFlMd" name="Страница — 1">
    <mxGraphModel dx="1520" dy="2062" grid="1" gridSize="10" guides="1" tooltips="1" connect="1" arrows="1" fold="1" page="1" pageScale="1" pageWidth="827" pageHeight="1169" background="#ffffff" math="0" shadow="0">
      <root>
        <mxCell id="0" />
        <mxCell id="1" parent="0" />
        <mxCell id="qNs_ZUYFinViznrLB-wq-1" value="&lt;span style=&quot;font-size:11.0pt;mso-bidi-font-size:14.0pt;&lt;br/&gt;line-height:107%;font-family:&amp;quot;Calibri&amp;quot;,sans-serif;mso-ascii-theme-font:minor-latin;&lt;br/&gt;mso-fareast-font-family:DengXian;mso-fareast-theme-font:minor-fareast;&lt;br/&gt;mso-hansi-theme-font:minor-latin;mso-bidi-font-family:&amp;quot;Cordia New&amp;quot;;mso-bidi-theme-font:&lt;br/&gt;minor-bidi;mso-ansi-language:RU;mso-fareast-language:ZH-CN;mso-bidi-language:&lt;br/&gt;TH&quot;&gt;выгрузка&lt;/span&gt;" style="rounded=0;whiteSpace=wrap;html=1;" parent="1" vertex="1">
          <mxGeometry x="354" y="130" width="120" height="60" as="geometry" />
        </mxCell>
        <mxCell id="qNs_ZUYFinViznrLB-wq-2" value="Документы" style="shape=process;whiteSpace=wrap;html=1;backgroundOutline=1;" parent="1" vertex="1">
          <mxGeometry x="150" y="330" width="120" height="60" as="geometry" />
        </mxCell>
        <mxCell id="qNs_ZUYFinViznrLB-wq-3" value="Ответственный" style="shape=process;whiteSpace=wrap;html=1;backgroundOutline=1;" parent="1" vertex="1">
          <mxGeometry x="550" y="330" width="120" height="60" as="geometry" />
        </mxCell>
        <mxCell id="qNs_ZUYFinViznrLB-wq-4" value="Грузчик" style="shape=process;whiteSpace=wrap;html=1;backgroundOutline=1;" parent="1" vertex="1">
          <mxGeometry x="550" y="130" width="120" height="60" as="geometry" />
        </mxCell>
        <mxCell id="qNs_ZUYFinViznrLB-wq-5" value="&#xa;&lt;span style=&quot;color: rgb(0, 0, 0); font-family: Calibri, sans-serif; font-size: 14.6667px; font-style: normal; font-variant-ligatures: normal; font-variant-caps: normal; font-weight: 400; letter-spacing: normal; orphans: 2; text-align: center; text-indent: 0px; text-transform: none; widows: 2; word-spacing: 0px; -webkit-text-stroke-width: 0px; white-space: normal; background-color: rgb(251, 251, 251); text-decoration-thickness: initial; text-decoration-style: initial; text-decoration-color: initial; display: inline !important; float: none;&quot;&gt;Складирование материалов&amp;nbsp;&lt;/span&gt;&#xa;&#xa;" style="shape=parallelogram;perimeter=parallelogramPerimeter;whiteSpace=wrap;html=1;fixedSize=1;" parent="1" vertex="1">
          <mxGeometry x="337" y="10" width="154" height="70" as="geometry" />
        </mxCell>
        <mxCell id="qNs_ZUYFinViznrLB-wq-6" value="" style="endArrow=classic;html=1;rounded=0;exitX=0;exitY=0.5;exitDx=0;exitDy=0;entryX=1;entryY=0.5;entryDx=0;entryDy=0;" parent="1" source="qNs_ZUYFinViznrLB-wq-4" target="qNs_ZUYFinViznrLB-wq-1" edge="1">
          <mxGeometry width="50" height="50" relative="1" as="geometry">
            <mxPoint x="460" y="410" as="sourcePoint" />
            <mxPoint x="510" y="360" as="targetPoint" />
          </mxGeometry>
        </mxCell>
        <mxCell id="qNs_ZUYFinViznrLB-wq-7" value="" style="endArrow=classic;html=1;rounded=0;exitX=0.5;exitY=1;exitDx=0;exitDy=0;" parent="1" source="qNs_ZUYFinViznrLB-wq-5" target="qNs_ZUYFinViznrLB-wq-1" edge="1">
          <mxGeometry width="50" height="50" relative="1" as="geometry">
            <mxPoint x="340" y="410" as="sourcePoint" />
            <mxPoint x="390" y="360" as="targetPoint" />
          </mxGeometry>
        </mxCell>
        <mxCell id="qNs_ZUYFinViznrLB-wq-8" value="выгруженный материал" style="shape=parallelogram;perimeter=parallelogramPerimeter;whiteSpace=wrap;html=1;fixedSize=1;" parent="1" vertex="1">
          <mxGeometry x="354" y="230" width="120" height="60" as="geometry" />
        </mxCell>
        <mxCell id="qNs_ZUYFinViznrLB-wq-9" value="" style="endArrow=classic;html=1;rounded=0;exitX=0.5;exitY=1;exitDx=0;exitDy=0;" parent="1" source="qNs_ZUYFinViznrLB-wq-1" target="qNs_ZUYFinViznrLB-wq-8" edge="1">
          <mxGeometry width="50" height="50" relative="1" as="geometry">
            <mxPoint x="340" y="410" as="sourcePoint" />
            <mxPoint x="390" y="360" as="targetPoint" />
          </mxGeometry>
        </mxCell>
        <mxCell id="qNs_ZUYFinViznrLB-wq-10" value="проверка материалов по документам" style="rounded=0;whiteSpace=wrap;html=1;" parent="1" vertex="1">
          <mxGeometry x="354" y="330" width="120" height="60" as="geometry" />
        </mxCell>
        <mxCell id="qNs_ZUYFinViznrLB-wq-11" value="" style="endArrow=classic;html=1;rounded=0;entryX=0.5;entryY=0;entryDx=0;entryDy=0;exitX=0.5;exitY=1;exitDx=0;exitDy=0;" parent="1" source="qNs_ZUYFinViznrLB-wq-8" target="qNs_ZUYFinViznrLB-wq-10" edge="1">
          <mxGeometry width="50" height="50" relative="1" as="geometry">
            <mxPoint x="340" y="410" as="sourcePoint" />
            <mxPoint x="390" y="360" as="targetPoint" />
          </mxGeometry>
        </mxCell>
        <mxCell id="qNs_ZUYFinViznrLB-wq-12" value="" style="endArrow=classic;html=1;rounded=0;exitX=0;exitY=0.5;exitDx=0;exitDy=0;entryX=1;entryY=0.5;entryDx=0;entryDy=0;" parent="1" source="qNs_ZUYFinViznrLB-wq-3" target="qNs_ZUYFinViznrLB-wq-10" edge="1">
          <mxGeometry width="50" height="50" relative="1" as="geometry">
            <mxPoint x="340" y="410" as="sourcePoint" />
            <mxPoint x="480" y="360" as="targetPoint" />
          </mxGeometry>
        </mxCell>
        <mxCell id="qNs_ZUYFinViznrLB-wq-13" value="" style="endArrow=classic;html=1;rounded=0;exitX=1;exitY=0.5;exitDx=0;exitDy=0;" parent="1" source="qNs_ZUYFinViznrLB-wq-2" edge="1">
          <mxGeometry width="50" height="50" relative="1" as="geometry">
            <mxPoint x="340" y="410" as="sourcePoint" />
            <mxPoint x="350" y="360" as="targetPoint" />
          </mxGeometry>
        </mxCell>
        <mxCell id="qNs_ZUYFinViznrLB-wq-14" value="" style="rhombus;whiteSpace=wrap;html=1;" parent="1" vertex="1">
          <mxGeometry x="374" y="420" width="80" height="80" as="geometry" />
        </mxCell>
        <mxCell id="qNs_ZUYFinViznrLB-wq-15" value="" style="endArrow=classic;html=1;rounded=0;entryX=0.5;entryY=0;entryDx=0;entryDy=0;exitX=0.5;exitY=1;exitDx=0;exitDy=0;" parent="1" source="qNs_ZUYFinViznrLB-wq-10" target="qNs_ZUYFinViznrLB-wq-14" edge="1">
          <mxGeometry width="50" height="50" relative="1" as="geometry">
            <mxPoint x="340" y="410" as="sourcePoint" />
            <mxPoint x="390" y="360" as="targetPoint" />
          </mxGeometry>
        </mxCell>
        <mxCell id="qNs_ZUYFinViznrLB-wq-16" value="документы не соответствуют материалам" style="shape=parallelogram;perimeter=parallelogramPerimeter;whiteSpace=wrap;html=1;fixedSize=1;" parent="1" vertex="1">
          <mxGeometry x="250" y="500" width="120" height="60" as="geometry" />
        </mxCell>
        <mxCell id="qNs_ZUYFinViznrLB-wq-17" value="документы соответствуют материалам" style="shape=parallelogram;perimeter=parallelogramPerimeter;whiteSpace=wrap;html=1;fixedSize=1;" parent="1" vertex="1">
          <mxGeometry x="470" y="500" width="120" height="60" as="geometry" />
        </mxCell>
        <mxCell id="qNs_ZUYFinViznrLB-wq-18" value="" style="endArrow=classic;html=1;rounded=0;exitX=0;exitY=0.5;exitDx=0;exitDy=0;entryX=0.5;entryY=0;entryDx=0;entryDy=0;" parent="1" source="qNs_ZUYFinViznrLB-wq-14" target="qNs_ZUYFinViznrLB-wq-16" edge="1">
          <mxGeometry width="50" height="50" relative="1" as="geometry">
            <mxPoint x="370" y="460" as="sourcePoint" />
            <mxPoint x="390" y="360" as="targetPoint" />
            <Array as="points">
              <mxPoint x="310" y="460" />
            </Array>
          </mxGeometry>
        </mxCell>
        <mxCell id="qNs_ZUYFinViznrLB-wq-19" value="" style="endArrow=classic;html=1;rounded=0;exitX=1;exitY=0.5;exitDx=0;exitDy=0;entryX=0.5;entryY=0;entryDx=0;entryDy=0;" parent="1" source="qNs_ZUYFinViznrLB-wq-14" target="qNs_ZUYFinViznrLB-wq-17" edge="1">
          <mxGeometry width="50" height="50" relative="1" as="geometry">
            <mxPoint x="340" y="410" as="sourcePoint" />
            <mxPoint x="390" y="360" as="targetPoint" />
            <Array as="points">
              <mxPoint x="530" y="460" />
            </Array>
          </mxGeometry>
        </mxCell>
        <mxCell id="qNs_ZUYFinViznrLB-wq-20" value="подписание договора" style="rounded=0;whiteSpace=wrap;html=1;" parent="1" vertex="1">
          <mxGeometry x="470" y="590" width="120" height="60" as="geometry" />
        </mxCell>
        <mxCell id="qNs_ZUYFinViznrLB-wq-21" value="" style="endArrow=classic;html=1;rounded=0;entryX=0.5;entryY=0;entryDx=0;entryDy=0;exitX=0.5;exitY=1;exitDx=0;exitDy=0;" parent="1" source="qNs_ZUYFinViznrLB-wq-17" target="qNs_ZUYFinViznrLB-wq-20" edge="1">
          <mxGeometry width="50" height="50" relative="1" as="geometry">
            <mxPoint x="350" y="550" as="sourcePoint" />
            <mxPoint x="400" y="500" as="targetPoint" />
          </mxGeometry>
        </mxCell>
        <mxCell id="qNs_ZUYFinViznrLB-wq-22" value="подписанный договор" style="shape=parallelogram;perimeter=parallelogramPerimeter;whiteSpace=wrap;html=1;fixedSize=1;" parent="1" vertex="1">
          <mxGeometry x="455" y="680" width="150" height="60" as="geometry" />
        </mxCell>
        <mxCell id="qNs_ZUYFinViznrLB-wq-23" value="" style="endArrow=classic;html=1;rounded=0;entryX=0.5;entryY=0;entryDx=0;entryDy=0;exitX=0.5;exitY=1;exitDx=0;exitDy=0;" parent="1" source="qNs_ZUYFinViznrLB-wq-20" target="qNs_ZUYFinViznrLB-wq-22" edge="1">
          <mxGeometry width="50" height="50" relative="1" as="geometry">
            <mxPoint x="350" y="550" as="sourcePoint" />
            <mxPoint x="400" y="500" as="targetPoint" />
          </mxGeometry>
        </mxCell>
        <mxCell id="qNs_ZUYFinViznrLB-wq-24" value="Уклад на места хранения" style="rounded=0;whiteSpace=wrap;html=1;" parent="1" vertex="1">
          <mxGeometry x="470" y="780" width="120" height="60" as="geometry" />
        </mxCell>
        <mxCell id="qNs_ZUYFinViznrLB-wq-25" value="" style="endArrow=classic;html=1;rounded=0;entryX=0.5;entryY=0;entryDx=0;entryDy=0;exitX=0.5;exitY=1;exitDx=0;exitDy=0;" parent="1" source="qNs_ZUYFinViznrLB-wq-22" target="qNs_ZUYFinViznrLB-wq-24" edge="1">
          <mxGeometry width="50" height="50" relative="1" as="geometry">
            <mxPoint x="350" y="660" as="sourcePoint" />
            <mxPoint x="400" y="610" as="targetPoint" />
          </mxGeometry>
        </mxCell>
        <mxCell id="qNs_ZUYFinViznrLB-wq-26" value="материалы убраны в места хранения" style="shape=parallelogram;perimeter=parallelogramPerimeter;whiteSpace=wrap;html=1;fixedSize=1;" parent="1" vertex="1">
          <mxGeometry x="425" y="870" width="210" height="60" as="geometry" />
        </mxCell>
        <mxCell id="qNs_ZUYFinViznrLB-wq-27" value="" style="endArrow=classic;html=1;rounded=0;entryX=0.5;entryY=0;entryDx=0;entryDy=0;exitX=0.5;exitY=1;exitDx=0;exitDy=0;" parent="1" source="qNs_ZUYFinViznrLB-wq-24" target="qNs_ZUYFinViznrLB-wq-26" edge="1">
          <mxGeometry width="50" height="50" relative="1" as="geometry">
            <mxPoint x="360" y="680" as="sourcePoint" />
            <mxPoint x="410" y="630" as="targetPoint" />
          </mxGeometry>
        </mxCell>
        <mxCell id="qNs_ZUYFinViznrLB-wq-28" value="Уклад на места хранения" style="shape=parallelogram;perimeter=parallelogramPerimeter;whiteSpace=wrap;html=1;fixedSize=1;" parent="1" vertex="1">
          <mxGeometry x="1000" y="10" width="130" height="80" as="geometry" />
        </mxCell>
        <mxCell id="qNs_ZUYFinViznrLB-wq-29" value="Распаковать" style="rounded=1;whiteSpace=wrap;html=1;" parent="1" vertex="1">
          <mxGeometry x="1000" y="110" width="120" height="60" as="geometry" />
        </mxCell>
        <mxCell id="qNs_ZUYFinViznrLB-wq-30" value="Товар распакован и проверен на целостность" style="shape=parallelogram;perimeter=parallelogramPerimeter;whiteSpace=wrap;html=1;fixedSize=1;" parent="1" vertex="1">
          <mxGeometry x="940" y="200" width="240" height="80" as="geometry" />
        </mxCell>
        <mxCell id="qNs_ZUYFinViznrLB-wq-31" value="" style="endArrow=classic;html=1;rounded=0;exitX=0.455;exitY=0.992;exitDx=0;exitDy=0;exitPerimeter=0;entryX=0.5;entryY=0;entryDx=0;entryDy=0;" parent="1" source="qNs_ZUYFinViznrLB-wq-28" target="qNs_ZUYFinViznrLB-wq-29" edge="1">
          <mxGeometry width="50" height="50" relative="1" as="geometry">
            <mxPoint x="980" y="330" as="sourcePoint" />
            <mxPoint x="1030" y="280" as="targetPoint" />
          </mxGeometry>
        </mxCell>
        <mxCell id="qNs_ZUYFinViznrLB-wq-32" value="" style="endArrow=classic;html=1;rounded=0;entryX=0.5;entryY=0;entryDx=0;entryDy=0;exitX=0.5;exitY=1;exitDx=0;exitDy=0;" parent="1" source="qNs_ZUYFinViznrLB-wq-29" target="qNs_ZUYFinViznrLB-wq-30" edge="1">
          <mxGeometry width="50" height="50" relative="1" as="geometry">
            <mxPoint x="980" y="330" as="sourcePoint" />
            <mxPoint x="1030" y="280" as="targetPoint" />
          </mxGeometry>
        </mxCell>
        <mxCell id="qNs_ZUYFinViznrLB-wq-33" value="Маркировка товара" style="rounded=1;whiteSpace=wrap;html=1;" parent="1" vertex="1">
          <mxGeometry x="1000" y="320" width="120" height="60" as="geometry" />
        </mxCell>
        <mxCell id="qNs_ZUYFinViznrLB-wq-34" value="" style="endArrow=classic;html=1;rounded=0;entryX=0.5;entryY=0;entryDx=0;entryDy=0;exitX=0.5;exitY=1;exitDx=0;exitDy=0;" parent="1" source="qNs_ZUYFinViznrLB-wq-30" target="qNs_ZUYFinViznrLB-wq-33" edge="1">
          <mxGeometry width="50" height="50" relative="1" as="geometry">
            <mxPoint x="980" y="330" as="sourcePoint" />
            <mxPoint x="1030" y="280" as="targetPoint" />
          </mxGeometry>
        </mxCell>
        <mxCell id="qNs_ZUYFinViznrLB-wq-35" value="Промаркированный товар" style="shape=parallelogram;perimeter=parallelogramPerimeter;whiteSpace=wrap;html=1;fixedSize=1;" parent="1" vertex="1">
          <mxGeometry x="960" y="420" width="200" height="60" as="geometry" />
        </mxCell>
        <mxCell id="qNs_ZUYFinViznrLB-wq-36" value="" style="endArrow=classic;html=1;rounded=0;entryX=0.5;entryY=0;entryDx=0;entryDy=0;exitX=0.5;exitY=1;exitDx=0;exitDy=0;" parent="1" source="qNs_ZUYFinViznrLB-wq-33" target="qNs_ZUYFinViznrLB-wq-35" edge="1">
          <mxGeometry width="50" height="50" relative="1" as="geometry">
            <mxPoint x="820" y="430" as="sourcePoint" />
            <mxPoint x="870" y="380" as="targetPoint" />
          </mxGeometry>
        </mxCell>
        <mxCell id="qNs_ZUYFinViznrLB-wq-37" value="Уклад на места хранения" style="rounded=1;whiteSpace=wrap;html=1;" parent="1" vertex="1">
          <mxGeometry x="1000" y="510" width="120" height="60" as="geometry" />
        </mxCell>
        <mxCell id="qNs_ZUYFinViznrLB-wq-38" value="материалы убраны в места хранения" style="shape=parallelogram;perimeter=parallelogramPerimeter;whiteSpace=wrap;html=1;fixedSize=1;" parent="1" vertex="1">
          <mxGeometry x="967.5" y="610" width="185" height="60" as="geometry" />
        </mxCell>
        <mxCell id="qNs_ZUYFinViznrLB-wq-39" value="" style="endArrow=classic;html=1;rounded=0;entryX=0.5;entryY=0;entryDx=0;entryDy=0;exitX=0.5;exitY=1;exitDx=0;exitDy=0;" parent="1" source="qNs_ZUYFinViznrLB-wq-37" target="qNs_ZUYFinViznrLB-wq-38" edge="1">
          <mxGeometry width="50" height="50" relative="1" as="geometry">
            <mxPoint x="980" y="510" as="sourcePoint" />
            <mxPoint x="1030" y="460" as="targetPoint" />
          </mxGeometry>
        </mxCell>
        <mxCell id="qNs_ZUYFinViznrLB-wq-40" value="" style="endArrow=classic;html=1;rounded=0;entryX=0.5;entryY=0;entryDx=0;entryDy=0;exitX=0.5;exitY=1;exitDx=0;exitDy=0;" parent="1" source="qNs_ZUYFinViznrLB-wq-35" target="qNs_ZUYFinViznrLB-wq-37" edge="1">
          <mxGeometry width="50" height="50" relative="1" as="geometry">
            <mxPoint x="980" y="510" as="sourcePoint" />
            <mxPoint x="1030" y="460" as="targetPoint" />
          </mxGeometry>
        </mxCell>
        <mxCell id="qNs_ZUYFinViznrLB-wq-41" value="менеджер" style="shape=process;whiteSpace=wrap;html=1;backgroundOutline=1;" parent="1" vertex="1">
          <mxGeometry x="780" y="270" width="120" height="60" as="geometry" />
        </mxCell>
        <mxCell id="qNs_ZUYFinViznrLB-wq-42" value="Грузчик" style="shape=process;whiteSpace=wrap;html=1;backgroundOutline=1;" parent="1" vertex="1">
          <mxGeometry x="1220" y="260" width="120" height="60" as="geometry" />
        </mxCell>
        <mxCell id="qNs_ZUYFinViznrLB-wq-43" value="" style="endArrow=classic;html=1;rounded=0;exitX=0;exitY=0.5;exitDx=0;exitDy=0;entryX=1;entryY=0.5;entryDx=0;entryDy=0;" parent="1" source="qNs_ZUYFinViznrLB-wq-42" target="qNs_ZUYFinViznrLB-wq-29" edge="1">
          <mxGeometry width="50" height="50" relative="1" as="geometry">
            <mxPoint x="1040" y="330" as="sourcePoint" />
            <mxPoint x="1090" y="280" as="targetPoint" />
            <Array as="points">
              <mxPoint x="1220" y="140" />
            </Array>
          </mxGeometry>
        </mxCell>
        <mxCell id="qNs_ZUYFinViznrLB-wq-44" value="" style="endArrow=classic;html=1;rounded=0;exitX=0;exitY=0.5;exitDx=0;exitDy=0;entryX=1;entryY=0.5;entryDx=0;entryDy=0;" parent="1" source="qNs_ZUYFinViznrLB-wq-42" target="qNs_ZUYFinViznrLB-wq-37" edge="1">
          <mxGeometry width="50" height="50" relative="1" as="geometry">
            <mxPoint x="1040" y="330" as="sourcePoint" />
            <mxPoint x="1220" y="550" as="targetPoint" />
            <Array as="points">
              <mxPoint x="1220" y="540" />
            </Array>
          </mxGeometry>
        </mxCell>
        <mxCell id="qNs_ZUYFinViznrLB-wq-45" value="" style="endArrow=classic;html=1;rounded=0;exitX=1;exitY=0.5;exitDx=0;exitDy=0;entryX=0;entryY=0.5;entryDx=0;entryDy=0;" parent="1" source="qNs_ZUYFinViznrLB-wq-41" target="qNs_ZUYFinViznrLB-wq-33" edge="1">
          <mxGeometry width="50" height="50" relative="1" as="geometry">
            <mxPoint x="1040" y="330" as="sourcePoint" />
            <mxPoint x="1090" y="280" as="targetPoint" />
            <Array as="points">
              <mxPoint x="900" y="350" />
            </Array>
          </mxGeometry>
        </mxCell>
        <mxCell id="qNs_ZUYFinViznrLB-wq-46" value="" style="endArrow=classic;html=1;rounded=0;entryX=0;entryY=0.5;entryDx=0;entryDy=0;exitX=1;exitY=0.5;exitDx=0;exitDy=0;" parent="1" source="qNs_ZUYFinViznrLB-wq-41" target="qNs_ZUYFinViznrLB-wq-29" edge="1">
          <mxGeometry width="50" height="50" relative="1" as="geometry">
            <mxPoint x="890" y="200" as="sourcePoint" />
            <mxPoint x="940" y="150" as="targetPoint" />
            <Array as="points">
              <mxPoint x="900" y="140" />
            </Array>
          </mxGeometry>
        </mxCell>
        <mxCell id="QK4hoyN_bJOKrjUvdqK2-1" value="подписанный договор" style="shape=parallelogram;perimeter=parallelogramPerimeter;whiteSpace=wrap;html=1;fixedSize=1;" vertex="1" parent="1">
          <mxGeometry x="990" y="-180" width="150" height="60" as="geometry" />
        </mxCell>
        <mxCell id="QK4hoyN_bJOKrjUvdqK2-2" value="Уклад на места хранения" style="rounded=0;whiteSpace=wrap;html=1;" vertex="1" parent="1">
          <mxGeometry x="1005" y="-80" width="120" height="60" as="geometry" />
        </mxCell>
        <mxCell id="QK4hoyN_bJOKrjUvdqK2-3" value="" style="endArrow=classic;html=1;rounded=0;exitX=0.5;exitY=1;exitDx=0;exitDy=0;entryX=0.5;entryY=0;entryDx=0;entryDy=0;" edge="1" parent="1" source="QK4hoyN_bJOKrjUvdqK2-1" target="QK4hoyN_bJOKrjUvdqK2-2">
          <mxGeometry width="50" height="50" relative="1" as="geometry">
            <mxPoint x="1200" y="-10" as="sourcePoint" />
            <mxPoint x="1250" y="-60" as="targetPoint" />
          </mxGeometry>
        </mxCell>
        <mxCell id="QK4hoyN_bJOKrjUvdqK2-4" value="" style="endArrow=classic;html=1;rounded=0;exitX=0.5;exitY=1;exitDx=0;exitDy=0;entryX=0.5;entryY=0;entryDx=0;entryDy=0;" edge="1" parent="1" source="QK4hoyN_bJOKrjUvdqK2-2" target="qNs_ZUYFinViznrLB-wq-28">
          <mxGeometry width="50" height="50" relative="1" as="geometry">
            <mxPoint x="1075" y="-110" as="sourcePoint" />
            <mxPoint x="1075" y="-70" as="targetPoint" />
          </mxGeometry>
        </mxCell>
      </root>
    </mxGraphModel>
  </diagram>
</mxfile>
